<svg width="2135" height="2133" viewBox="0 0 2135 2133" fill="none" xmlns="http://www.w3.org/2000/svg">
<circle cx="2024.5" cy="935.5" r="14.5" fill="black"/>
<circle cx="920.5" cy="2031.5" r="14.5" fill="black"/>
<path d="M1420.96 1181.63C1420.55 1172.66 1416.49 1165.2 1408.77 1160.45C1402.43 1156.57 1395.3 1155.19 1388.07 1154.57C1388.88 1153.98 1389.65 1153.35 1390.41 1152.69C1396.92 1146.92 1401.02 1139.04 1400.97 1130.27C1400.93 1122.12 1398.97 1113.65 1396.35 1105.97C1393.71 1098.27 1389.42 1090.87 1382.81 1085.95C1379.5 1083.48 1375.59 1081.48 1371.37 1081.54C1366.84 1081.61 1363.13 1084.27 1359.82 1087.2C1352.99 1093.33 1346.7 1100.02 1341.62 1107.69C1338.08 1113.05 1334.82 1118.63 1331.82 1124.34C1331.99 1121.23 1332.09 1118.11 1332 1115C1331.73 1106.25 1329.86 1097.47 1325.88 1089.63C1322.16 1082.36 1318.18 1074.03 1311.36 1069.14C1304.51 1064.25 1295.91 1064.59 1288.59 1068.32C1281.7 1071.83 1276.58 1077.26 1271.28 1082.73C1265.85 1088.33 1259.31 1094.74 1259.59 1103.19C1259.73 1107.62 1261.9 1112.24 1263.59 1116.3C1265.51 1120.9 1267.75 1125.36 1270.18 1129.71C1272 1132.99 1273.86 1136.35 1275.93 1139.54C1272.84 1137.94 1269.73 1136.39 1266.56 1134.94C1257.49 1130.8 1247.82 1127.1 1237.9 1125.59C1233.53 1124.92 1229.14 1124.91 1224.74 1124.85C1220.36 1124.8 1216.65 1125.35 1213.11 1128.11C1209.94 1130.57 1207.64 1133.93 1205.7 1137.37C1203.61 1141.05 1201.35 1144.76 1199.63 1148.63C1196.26 1156.25 1196.22 1165.69 1201.38 1172.57C1204.44 1176.66 1208.78 1178.81 1213.51 1179.83C1211.41 1180.33 1209.29 1180.81 1207.22 1181.36C1195.16 1184.6 1183.34 1188.72 1171.54 1192.74C1148.09 1200.69 1124.77 1208.88 1101.89 1218.3C1079.16 1227.65 1057.13 1238.41 1035.21 1249.47C1013.08 1260.66 991.098 1272.21 970.012 1285.29C963.135 1289.56 956.442 1294.08 949.798 1298.68C959.465 1288.9 969.119 1279.1 978.668 1269.23C1008.03 1238.94 1036.65 1207.91 1063.86 1175.64C1090.97 1143.49 1115.8 1109.85 1140.1 1075.56C1148.59 1063.57 1157.17 1051.54 1165.71 1039.44C1165.87 1039.43 1166.02 1039.38 1166.19 1039.35C1169.04 1039 1171.91 1038.97 1174.75 1038.57C1180.72 1037.72 1186.57 1036.01 1192.38 1034.5C1198.22 1032.97 1204.06 1031.52 1209.95 1030.31C1214.95 1029.28 1219.97 1028.18 1224.71 1026.26C1229.95 1024.16 1234.64 1020.87 1239.34 1017.77C1244.24 1014.54 1249.09 1011.24 1253.95 1007.93C1263.46 1001.41 1272.91 994.757 1282.36 988.134C1301.47 974.78 1320.65 961.399 1340.83 949.727C1350.92 943.873 1361.24 938.403 1371.89 933.635C1382.7 928.774 1393.76 924.512 1404.7 919.99C1412.11 916.928 1419.52 913.757 1426.73 910.223C1430.02 908.62 1433.27 906.943 1436.37 905.029C1439.08 903.32 1442.13 900.89 1441.47 897.24C1440.96 894.405 1438.33 892.313 1435.4 892.757C1397.95 898.353 1359.44 898.258 1322.7 908.28C1304.39 913.276 1287.1 921.076 1270.1 929.403C1252.64 937.944 1235.27 947.12 1219.64 958.732C1219.24 959.017 1218.88 959.342 1218.48 959.625C1235.53 931.225 1250.79 901.847 1262.61 870.89C1262.7 870.717 1262.82 870.557 1262.91 870.409C1285.07 834.588 1307.69 798.741 1334 765.796C1340.03 758.222 1346.41 750.893 1353.36 744.155C1360.62 737.097 1368.59 731.001 1376.62 724.875C1392.91 712.457 1409.34 700.168 1426.66 689.203C1429.41 687.46 1432.16 685.771 1434.93 684.114C1437.21 685.258 1439.91 684.953 1441.74 682.635C1442.06 682.239 1442.36 681.811 1442.66 681.384C1443.77 681.539 1444.9 681.705 1446.02 682.023C1449.59 683.058 1452.89 684.971 1456.11 686.776C1462.36 690.286 1468.39 694.101 1473.99 698.601C1478.72 702.415 1482.92 706.798 1488.39 709.584C1493.63 712.245 1500.58 712.907 1505.19 708.649C1513.55 700.911 1509.12 686.218 1503.62 678.24C1501.23 674.782 1498.19 671.825 1494.76 669.441C1497.14 669.403 1499.56 669.35 1501.94 669.203C1508.58 668.802 1515.19 668.656 1521.86 668.45C1527.9 668.252 1534.01 667.561 1539.65 665.28C1544.86 663.185 1549.61 659.742 1553.77 656.033C1563.26 647.568 1569.2 637.146 1575.71 626.403C1579.66 619.874 1584.03 613.747 1590.07 609.019C1595.63 604.67 1601.83 601.201 1607.08 596.441C1609.31 594.438 1609.38 590.063 1606.02 589.035C1603.74 588.338 1601.47 588.29 1599.15 587.91C1596.17 587.425 1593.25 586.651 1590.26 586.187C1584.13 585.229 1577.83 584.957 1571.64 584.961C1559.48 584.959 1547.62 586.506 1535.96 589.906C1525.51 592.955 1515.56 597.35 1506.35 603.214C1496.13 609.743 1487.23 618.178 1478.79 626.823C1472.58 633.205 1466.67 639.867 1460.84 646.608C1460.91 646.373 1461.01 646.181 1461.08 645.947C1464.58 635.199 1464.42 624.4 1460.44 613.797C1458.65 609.071 1455.38 604.143 1449.63 604.717C1444.92 605.182 1442.13 609.438 1440.06 613.253C1435.39 621.916 1433.2 632.196 1431.81 641.852C1430.79 648.926 1430.55 656.074 1430.86 663.207C1431.03 666.898 1431.7 670.655 1431.5 674.355C1431.47 675.097 1431.39 675.819 1431.36 676.54C1415.06 685.592 1399.57 695.987 1384.49 706.934C1367.91 718.977 1351.57 731.04 1337.73 746.261C1324.35 760.986 1312.79 777.351 1301.35 793.607C1292.19 806.626 1283.43 819.941 1274.88 833.388C1284.24 799.599 1289.63 764.776 1294.76 730.106C1301.09 687.163 1308.76 644.466 1316.12 601.697C1317.56 593.384 1318.96 585.083 1320.35 576.752C1320.59 576.535 1320.83 576.319 1320.99 576.045C1321.28 575.586 1321.5 575.155 1321.69 574.682C1328.51 575.788 1335.9 574.956 1342.56 574.957C1352.83 574.989 1363.02 576.603 1373.3 575.96C1382.29 575.404 1391.43 573.185 1399.06 568.258C1404.91 564.47 1411.68 557.421 1408.27 549.887C1406.26 545.462 1399.52 543.164 1395.04 542.708C1390.14 542.211 1385.07 542.042 1380.14 542.34C1364.7 543.267 1350.35 547.993 1336.92 554.987C1340.16 551.486 1343.19 547.795 1346.12 544.038C1354.92 532.775 1362.98 520.771 1369.28 507.884C1375.09 496.027 1378.97 483.138 1380.55 470.01C1381.33 463.469 1381.49 456.837 1381.07 450.257C1380.63 443.699 1379.29 437.304 1378.2 430.845C1376.93 423.358 1375.36 415.256 1376.04 407.658C1376.37 404.033 1377.49 400.625 1378.74 397.216C1379.96 393.951 1381.41 391.22 1379.99 387.734C1379.14 385.676 1376.14 384.138 1374.04 385.359C1367.48 389.206 1362.46 394.629 1357.07 399.878C1351.38 405.401 1345.52 410.776 1339.5 415.958C1327.87 426.015 1315.88 436.396 1307.33 449.322C1291.35 473.438 1289.56 505.24 1296.16 532.734C1297.3 537.515 1298.66 542.278 1300.23 546.97C1288.86 539.567 1275.91 534.949 1262.6 532.687C1255.35 531.465 1247.77 530.835 1240.44 531.272C1236.79 531.483 1232.48 531.772 1229.65 534.315C1226.9 536.765 1226.82 539.911 1228.08 542.89C1229.45 548.804 1235.29 552.123 1240.38 554.572C1245.65 557.091 1251.29 558.743 1256.82 560.632C1266.79 564.035 1276.78 567.318 1286.88 570.308C1294.13 572.443 1301.49 575.144 1308.94 576.838C1302.03 616.375 1294.53 655.83 1287.89 695.418C1280.85 737.326 1275.83 779.753 1265.1 820.94C1259.2 843.473 1251.34 865.142 1242.01 886.15C1235.56 896.606 1229.1 907.084 1222.63 917.53C1224.72 906.25 1226.18 894.87 1227.59 883.471C1230.73 858.38 1233.38 833.251 1234.84 808.01C1237.58 760.037 1236.27 711.83 1223.06 665.362C1219.47 652.78 1215.17 640.432 1210.17 628.351C1207.41 621.728 1204.47 615.186 1201.27 608.776C1200.09 606.432 1198.91 604.108 1197.62 601.849C1196.41 598.03 1194.85 594.359 1192.48 590.963C1189.93 587.29 1184.21 590.142 1184.78 594.277C1185.39 598.637 1187.83 602.32 1189.97 606.094C1190.47 607.909 1190.89 609.742 1191.29 611.545C1192.69 617.652 1193.77 623.818 1194.61 630.038C1196.25 642.394 1196.93 654.885 1196.63 667.351C1196.05 692.346 1191.65 716.882 1185.49 741.056C1179.03 766.333 1170.65 791.499 1167.22 817.409C1163.97 841.73 1164.69 866.668 1170.09 890.602C1173.01 903.601 1176.99 916.313 1181.09 928.97C1183.16 935.345 1185.47 941.69 1187.05 948.207C1187.77 951.23 1188.4 954.48 1189.97 957.216C1191.02 959.094 1193.44 961.31 1193.59 963.505C1193.59 963.744 1193.66 963.977 1193.7 964.202C1182.84 981.549 1171.83 998.812 1160.49 1015.86C1154.41 1024.98 1148.33 1034.13 1141.95 1043.02C1135.76 1051.65 1128.87 1059.74 1121.93 1067.76C1107.65 1084.29 1095.03 1102 1081.88 1119.41C1077.5 1125.19 1073.14 1130.98 1068.84 1136.82C1071.72 1127.42 1074.27 1117.93 1076.33 1108.31C1078.94 1096.11 1080.9 1083.68 1081.16 1071.19C1081.41 1059.31 1080.45 1047.46 1079.99 1035.58C1079.53 1023.65 1079.69 1011.75 1078.46 999.844C1077.28 988.352 1075.25 976.985 1072.78 965.71C1067.89 943.459 1061.71 921.319 1060.5 898.453C1059.77 884.978 1060.44 870.991 1062.07 857.599C1062.85 851.187 1063.97 844.858 1065.96 838.721C1067.91 832.724 1070.18 826.695 1070.32 820.316C1070.4 816.908 1067.61 815.017 1064.43 815.959C1060.41 817.148 1057.95 821.583 1055.77 824.832C1052.4 829.896 1048.63 834.67 1045.37 839.836C1038 851.564 1032.46 864.181 1027.92 877.224C1023.4 890.145 1019.85 903.396 1016.52 916.661C1013.24 929.739 1009.78 942.841 1007.34 956.098C1004.84 969.717 1004.15 983.333 1004.15 997.143C1004.14 1010.45 1003.87 1023.76 1004.09 1037.07C1004.3 1049.84 1005.02 1062.61 1007.11 1075.22C1009.38 1088.94 1012.78 1102.52 1015.66 1116.15C1018.74 1130.77 1022.49 1145.48 1023.93 1160.39C1024.63 1167.52 1024.39 1174.75 1024.17 1181.9C1023.94 1189.34 1023.4 1196.79 1020.53 1203.74C1020.32 1204.26 1020.21 1204.74 1020.14 1205.23C1009.83 1216.7 999.372 1228.06 988.772 1239.26C933.675 1297.59 875.519 1352.87 817.743 1408.52C819.678 1404.96 821.591 1401.4 823.435 1397.81C829.713 1385.57 835.285 1372.94 839.548 1359.86C843.818 1346.84 847.014 1333.45 849.872 1320.05C855.625 1293.16 859.689 1266.07 862.605 1238.72C865.489 1211.65 866.22 1184.3 866.822 1157.07C867.153 1142.9 866.392 1129.05 864.09 1115.07C862.912 1107.96 862.457 1100.79 862.142 1093.61C861.853 1086.61 861.038 1079.3 862.174 1072.33C862.31 1071.53 862.161 1070.79 861.846 1070.14C864.45 1069.09 866.989 1067.95 869.397 1066.79C876.493 1063.42 884.573 1058.88 888.347 1051.69C892.364 1044.01 889.849 1036.2 886.053 1029.06C882.387 1022.18 878.099 1016.54 872.555 1011.04C870.114 1008.61 867.617 1006.18 865.085 1003.84C869.86 1005.12 874.663 1006.2 879.571 1006.88C895.659 1009.11 919.026 1008.21 925.959 990.523C929.612 981.218 929.555 970.956 927.651 961.284C926.154 953.599 923.911 945.955 919.981 939.151C916.077 932.409 910.073 925.451 901.586 925.585C892.003 925.724 883.172 932.675 875.275 937.341C865.467 943.148 855.952 949.593 846.672 956.235C851.836 946.857 855.97 936.859 860.149 927.009C864.021 917.87 868.004 908.512 870.207 898.788C871.908 891.309 872.057 883.083 867.854 876.378C862.898 868.484 852.858 865.392 844.016 864.913C834.127 864.382 823.832 866.243 814.372 869.087C806.443 871.476 799.743 876.672 797.322 884.851C794.488 894.457 795.331 905.163 796.639 914.962C797.42 920.85 798.187 926.837 799.165 932.751C794.686 925.232 790.113 917.753 785.46 910.346C780.442 902.35 774.551 894.321 764.616 892.729C756.124 891.373 747.471 895.452 741.022 900.67C725.805 912.944 717.693 933.003 711.094 950.827C709.364 955.504 708.643 960.324 710.693 965.051C712.617 969.441 716.24 972.501 720.38 974.727C729.648 979.699 740.932 980.188 751.15 981.528C752.433 981.702 753.719 981.876 754.981 982.039C747.633 983.695 740.333 985.814 733.463 988.882C728.705 991.023 724.149 993.584 719.777 996.452C715.862 999.033 711.752 1001.64 708.385 1004.94C695.875 1017.14 706.172 1038.89 716.901 1048.82C723.824 1055.24 733.886 1059.59 743.401 1057.52C745.876 1057 748.218 1056.08 750.467 1054.95C750.307 1055.87 750.131 1056.77 750.05 1057.7C749.142 1067.11 752.563 1075.98 758.993 1082.84C765.556 1089.84 773.982 1095.15 783.187 1097.86C792.416 1100.58 803.776 1103.23 812.104 1096.89C819.138 1091.51 822.287 1082.42 824.165 1074.1C824.922 1070.76 825.519 1067.3 826.063 1063.84C826.79 1065.15 827.647 1066.4 828.663 1067.51C833.741 1073.13 841.632 1074.69 848.911 1073.73C850.477 1073.53 852.033 1073.21 853.596 1072.82C852.54 1078.15 852.735 1083.42 852.933 1088.94C853.172 1095.21 853.377 1101.5 853.962 1107.75C854.568 1114.01 855.893 1120.17 856.653 1126.44C857.406 1132.65 857.776 1138.92 857.828 1145.2C857.979 1158.11 857.15 1170.99 856.786 1183.87C856.393 1197.55 856.154 1211.24 854.965 1224.89C852.628 1252.02 849.189 1279.18 843.943 1305.9C838.697 1332.63 832.551 1358.87 821.147 1383.74C814.79 1397.62 807.528 1411.3 799.1 1424.04C797.646 1426.25 796.115 1428.4 794.57 1430.52C737.678 1484.32 677.629 1534.29 618.201 1585.32C610.17 1592.23 602.129 1599.16 594.146 1606.13C589.245 1610.41 595.345 1618.36 600.404 1614.15C656.048 1567.66 713.046 1522.68 767.03 1474.28C767.35 1474.2 767.655 1474.08 767.964 1474.02C771.659 1473.18 775.42 1472.49 779.173 1471.95C786.603 1470.88 793.914 1471.22 801.369 1471.84C817.217 1473.16 832.737 1475.97 848.359 1478.84C880.89 1484.81 913.492 1490.8 946.188 1495.9C962.42 1498.41 978.81 1500.73 995.223 1501.54C1010.26 1502.28 1025.39 1501.3 1040.22 1498.75C1054.5 1496.29 1069.38 1492.98 1082.67 1487.07C1095 1481.6 1105.98 1473.5 1115.87 1464.39C1126.05 1455.03 1135.23 1444.67 1144.96 1434.87C1155.52 1424.21 1167.93 1412.53 1172.2 1397.61C1173.4 1393.42 1170.66 1389.26 1166.71 1387.66C1162.73 1386.07 1159.14 1387.76 1155.93 1390.03C1149.48 1394.52 1143.22 1399.26 1137.09 1404.19C1124.66 1414.24 1112.21 1424.52 1098.65 1433.05C1086.42 1440.73 1071.91 1445.02 1057.86 1447.94C1043.71 1450.87 1029.25 1451.82 1014.83 1451.88C999.573 1451.95 984.302 1452.45 969.307 1449.05C961.331 1447.24 953.483 1444.4 945.683 1441.89C938.786 1439.66 932.017 1437.11 925.258 1434.47C911.487 1429.11 897.726 1423.59 883.24 1420.42C869.153 1417.35 854.987 1417.56 840.881 1420.43C832.838 1422.07 825.027 1424.42 817.433 1427.42C849.573 1396.95 881.516 1366.26 913.024 1335.16C920.493 1329.41 928.183 1323.95 935.955 1318.61C946.14 1311.6 956.21 1304.41 966.553 1297.65C987.119 1284.17 1008.98 1272.67 1030.9 1261.61C1052.53 1250.7 1074.22 1239.94 1096.57 1230.56C1118.91 1221.18 1141.69 1212.86 1164.67 1205.17C1178 1200.69 1191.33 1196.18 1204.78 1192.01C1209.56 1190.53 1214.41 1189.28 1219.26 1188.07C1217.07 1190.3 1215.11 1192.82 1213.47 1195.76C1204.84 1211.24 1212.97 1232.02 1228.03 1240.35C1236.87 1245.23 1247.21 1243.75 1256.39 1240.59C1265.65 1237.4 1272.26 1231.13 1279.08 1224.39C1279.21 1224.26 1279.37 1224.11 1279.5 1223.98C1279.31 1224.45 1279.12 1224.93 1278.91 1225.39C1275.15 1234.18 1272.03 1243.15 1270.95 1252.67C1270.12 1259.93 1270.58 1268.37 1275.8 1274.05C1282.32 1281.13 1292.7 1281.75 1301.67 1280.51C1306.47 1279.85 1311.15 1278.61 1315.8 1277.32C1320.2 1276.1 1324.71 1275.08 1328.88 1273.18C1337.48 1269.23 1344.75 1262.47 1348.96 1253.93C1353.05 1245.61 1352.54 1235.04 1352.16 1226C1351.95 1220.7 1351.12 1215.65 1349.91 1210.71C1351.85 1212.58 1353.86 1214.4 1355.89 1216.15C1368.08 1226.54 1385.64 1238.54 1401.03 1226.81C1415.02 1216.24 1421.78 1198.87 1420.96 1181.63ZM1492.93 682.211C1495.72 685.406 1497.83 689.271 1498.52 693.482C1498.78 694.991 1498.88 696.383 1498.71 697.855C1498.55 699.227 1498.38 700.589 1497.51 700.868C1497.09 701.013 1494.9 700.35 1494.06 699.987C1492 699.085 1490.21 697.695 1488.46 696.268C1484.26 692.821 1480.37 689.054 1475.97 685.843C1470.47 681.82 1464.57 678.453 1458.55 675.269C1458.02 674.977 1457.47 674.708 1456.93 674.44C1460.06 673.967 1463.21 673.374 1466.34 672.773C1467.06 672.722 1467.81 672.658 1468.55 672.639C1477.5 672.381 1486.89 675.29 1492.93 682.211ZM1586.84 600.013C1581.55 603.69 1576.95 608.056 1573.03 613.19C1565.4 623.202 1560.34 634.941 1551.49 644.024C1547.89 647.718 1543.76 651.284 1539.25 653.806C1534.45 656.507 1529.2 657.409 1523.74 657.707C1510.77 658.447 1497.76 658.571 1484.78 659.467C1479.48 659.826 1474.29 660.909 1469.06 661.926C1464.99 661.968 1460.91 662.401 1456.92 663.205C1457.95 661.999 1459 660.801 1460.02 659.595C1461.48 659.45 1462.96 659.336 1464.45 659.252C1470.27 658.891 1476.05 657.964 1481.78 657.045C1493.42 655.201 1505.63 652.983 1516.35 647.88C1525.21 643.676 1532.47 637.269 1538.87 629.895C1545.45 622.329 1550.87 613.86 1558.61 607.36C1567.3 600.038 1577.65 595.622 1589.02 594.788C1589.18 594.774 1589.35 594.737 1589.5 594.692C1590.87 594.926 1592.23 595.158 1593.58 595.434C1591.32 596.983 1589.05 598.447 1586.84 600.013ZM1569.02 593.429C1565.83 594.84 1562.72 596.516 1559.77 598.493C1551.18 604.264 1544.84 612.079 1538.47 620.095C1532.33 627.807 1525.61 635.341 1516.89 640.198C1506.25 646.119 1493.75 648.373 1481.87 650.282C1478.32 650.842 1474.74 651.395 1471.18 651.827C1482.03 644.898 1492.2 636.89 1502.24 628.595C1510.62 621.672 1519.02 614.809 1527.61 608.15C1531.62 605.061 1535.56 601.369 1540.2 599.283C1542.57 598.224 1544.96 597.303 1546.92 595.791C1553.38 594.482 1559.95 593.719 1566.49 593.513C1567.33 593.431 1568.16 593.449 1569.02 593.429ZM1506.55 612.934C1511.46 609.42 1516.68 606.426 1522.15 603.865C1514.02 610.183 1506.08 616.734 1498.15 623.316C1491.25 629.059 1484.23 634.881 1476.91 640.248C1486 630.275 1495.6 620.761 1506.55 612.934ZM1441 648.853C1441.59 640.024 1443.17 631.037 1446.24 622.725C1447.23 620.046 1448.29 616.978 1450.18 614.785C1450.46 615.316 1450.92 615.994 1450.99 616.206C1451.33 616.993 1451.6 617.827 1451.88 618.619C1454.7 626.648 1454.42 635.211 1451.66 643.203C1449.2 650.277 1445.4 656.705 1441.04 662.735C1440.72 658.124 1440.69 653.497 1441 648.853ZM1362.47 554.702C1368.49 553.17 1374.8 552.092 1381.01 551.675C1384.44 551.428 1387.75 551.81 1391.17 551.978C1394.56 552.157 1397.01 552.482 1399.59 554.241C1399.43 556.808 1394.39 559.777 1393.16 560.511C1387.73 563.687 1381.34 565.022 1375.15 565.623C1368.58 566.234 1362.03 565.626 1355.49 565.05C1350.01 564.558 1344.56 564.444 1339.08 564.42C1346.45 560.274 1354.24 556.79 1362.47 554.702ZM1328.65 529.513C1325.79 534.494 1322.95 539.537 1320.31 544.66C1320.5 542.623 1320.7 540.596 1320.84 538.563C1321.62 527.567 1321.09 516.465 1322.93 505.552C1325.03 493.152 1330.62 481.726 1336.8 470.902C1342.93 460.137 1349.42 449.646 1354.84 438.518C1359.05 429.828 1362.97 421.02 1367.31 412.407C1367.39 415.877 1367.71 419.37 1368.11 422.812C1367.86 425.082 1367.59 427.344 1367.32 429.583C1365.82 441.412 1362.59 452.92 1359.27 464.338C1355.94 475.93 1352.05 486.994 1346.59 497.767C1341.1 508.631 1334.72 518.982 1328.65 529.513ZM1303.43 501.706C1303.57 488.135 1306.04 474.138 1312.08 461.903C1318.73 448.4 1330.17 437.588 1341.18 427.647C1347.55 421.904 1353.93 416.213 1360.04 410.209C1361.91 408.377 1363.75 406.427 1365.61 404.51C1360.97 413.085 1356.83 421.932 1352.63 430.73C1347.04 442.362 1340.62 453.38 1334.05 464.464C1327.79 475.022 1321.78 485.94 1318.59 497.88C1315.69 508.784 1315.59 519.951 1315.06 531.154C1314.8 537.119 1313.96 543.014 1313.48 548.943C1313.43 549.654 1313.38 550.364 1313.33 551.074C1312.29 548.392 1311.28 545.696 1310.42 542.955C1306.14 529.628 1303.29 515.723 1303.43 501.706ZM1290.56 561.066C1280.95 558.457 1271.48 555.457 1262.04 552.291C1256.73 550.514 1251.3 548.92 1246.12 546.751C1243.71 545.738 1241.43 544.617 1239.36 543.011C1238.79 542.548 1238.43 542.275 1238.06 541.817C1246.48 540.875 1255.31 541.92 1263.51 543.55C1272.79 545.404 1282.07 548.661 1290.26 553.464C1294.35 555.855 1298.46 558.615 1301.86 561.977C1302.95 563.037 1303.99 564.154 1305.06 565.259C1300.2 563.921 1295.35 562.377 1290.56 561.066ZM1324.23 554.041C1323.55 554.707 1322.86 555.396 1322.15 556.053C1330.72 537.454 1342.24 520.42 1351.72 502.234C1357.47 491.164 1361.7 479.821 1365.18 467.868C1367.36 460.371 1369.55 452.83 1371.29 445.185C1371.97 450.669 1372.38 456.198 1372.03 461.844C1370.53 487.2 1359.32 509.619 1344.56 529.839C1340.27 535.711 1335.83 541.574 1331.09 547.06C1328.93 549.557 1326.57 551.745 1324.23 554.041ZM1203.2 984.094C1208.49 978.909 1214.03 974.006 1219.93 969.455C1234.94 957.903 1251.76 948.797 1268.68 940.41C1285.14 932.28 1301.92 924.406 1319.51 919.047C1337.07 913.703 1355.62 911.38 1373.81 909.439C1385.69 908.159 1397.59 907.12 1409.5 906.034C1406.61 907.278 1403.7 908.491 1400.78 909.696C1379.61 918.344 1358.62 926.751 1338.67 938.024C1299.25 960.343 1263.85 988.668 1225.71 1012.96C1216.4 1018.89 1204.42 1019.89 1193.95 1022.7C1187.54 1024.41 1181.14 1026.5 1174.64 1027.81C1174.29 1027.89 1173.95 1027.9 1173.61 1027.97C1178.2 1021.39 1182.73 1014.78 1187.25 1008.14C1204.59 1000.62 1221.77 992.756 1239.05 985.131C1248.12 981.116 1256.96 976.878 1265.71 972.213C1274.31 967.618 1282.87 962.905 1291.81 959.018C1294.99 957.63 1292.89 953.245 1289.73 954.175C1280.34 956.968 1271.65 961.422 1263.05 966.017C1254.3 970.682 1245.47 974.951 1236.38 978.936C1222.3 985.149 1208.31 991.528 1194.23 997.739C1197.25 993.213 1200.23 988.67 1203.2 984.094ZM1197.09 949.453C1195.99 943.071 1194.38 937.166 1192.32 931.028C1188.55 919.701 1184.77 908.395 1181.74 896.841C1175.44 872.909 1173.51 848.504 1176.07 823.886C1178.78 797.634 1187.02 772.284 1193.51 746.809C1199.78 722.105 1204.64 697.18 1205.44 671.624C1205.79 660.273 1205.4 648.887 1204.27 637.596C1206.9 644.273 1209.34 651.03 1211.51 657.887C1218.38 679.416 1222.81 701.715 1225.05 724.212C1229.9 773.126 1225.67 823.009 1220 871.664C1218.32 886.082 1216.72 900.529 1214.2 914.821C1212.85 922.488 1211.05 930.007 1209.04 937.489C1208.82 936.15 1208.56 934.823 1208.35 933.539C1206.33 922.127 1205.27 910.787 1204.8 899.212C1203.78 874.364 1201.59 849.647 1202.95 824.759C1203.71 810.809 1205.05 796.907 1206.21 783.011C1206.57 778.7 1199.85 777.921 1199.5 782.264C1197.48 806.579 1194.95 830.923 1195.82 855.372C1196.25 867.505 1197.4 879.586 1197.84 891.718C1198.26 903.612 1198.5 915.618 1200.44 927.362C1201.61 934.499 1203.09 941.578 1203.39 948.68C1202 950.917 1200.61 953.175 1199.2 955.402C1198.12 953.484 1197.47 951.766 1197.09 949.453ZM1029.4 1130.6C1026.45 1117.23 1023.42 1103.85 1020.37 1090.49C1017.5 1077.88 1015.1 1065.35 1014.18 1052.42C1013.28 1039.9 1013.32 1027.35 1013.35 1014.78C1013.4 1001.2 1012.83 987.576 1013.95 974.03C1015.03 960.78 1017.93 947.813 1020.97 934.907C1024.07 921.836 1027.15 908.733 1030.85 895.827C1034.96 881.518 1039.78 867.18 1046.66 853.928C1049.81 847.86 1053.49 842.061 1057.41 836.481C1055.73 841.6 1054.49 846.809 1053.6 852.133C1051.6 864.026 1051.26 876.191 1050.92 888.225C1050.32 911.277 1055.61 933.634 1060.82 955.934C1066.08 978.435 1070.33 1001.06 1070.7 1024.26C1070.88 1036.17 1071.78 1048.04 1072.23 1059.92C1072.7 1072.09 1071.85 1084.05 1069.9 1096.07C1066.3 1118.35 1059.65 1139.9 1051.75 1160.98C1051.04 1162.06 1050.36 1163.17 1049.65 1164.24C1051.59 1157.66 1052.95 1150.96 1054.13 1144.21C1055.33 1137.29 1056.72 1130.32 1057.35 1123.3C1059.75 1096.45 1050.06 1071.09 1045.31 1045.09C1042.62 1030.39 1043.45 1015.95 1045.18 1001.19C1045.67 997.081 1039.29 996.361 1038.81 1000.47C1037.36 1012.74 1036.25 1025.08 1037.58 1037.42C1039.02 1050.63 1042.7 1063.57 1045.74 1076.45C1048.53 1088.22 1050.94 1100.23 1051.13 1112.37C1051.32 1125.24 1048.65 1138.3 1046.09 1150.88C1044.65 1157.89 1042.64 1164.65 1040.09 1171.32C1038.9 1174.44 1037.5 1177.97 1035.38 1180.8C1035.43 1177.01 1035.38 1173.22 1035.33 1169.49C1035.16 1156.3 1032.26 1143.44 1029.4 1130.6ZM845.203 970.137C852.809 964.366 860.749 959.063 868.689 953.762C876.19 948.78 883.915 944.02 891.834 939.753C894.752 938.181 898.717 935.93 902.132 936.25C904.187 936.445 906.199 938.265 907.659 940.021C911.406 944.537 913.822 950.244 915.438 955.865C917.793 964.206 919.28 972.901 917.629 981.494C916.954 985.029 915.894 989.062 913.352 991.722C911.308 993.851 908.202 994.983 905.387 995.71C898.149 997.617 890.209 997.81 882.803 996.993C872.932 995.896 863.34 992.982 853.902 990.076C848.241 988.339 842.349 987.057 836.553 985.528C844.239 983.745 851.925 982.096 859.682 980.656C872.035 978.394 884.732 976.708 895.984 970.801C899.152 969.12 897.178 964.399 893.768 965.644C882.013 969.996 869.825 972.04 857.58 974.424C849.602 975.956 841.646 977.761 833.756 979.67C833.966 979.466 834.188 979.241 834.398 979.038C837.833 975.901 841.493 972.983 845.203 970.137ZM805.404 898.888C805.402 892.087 805.961 884.598 812.435 880.822C815.453 879.056 818.982 878.301 822.349 877.559C826.707 876.615 831.122 875.794 835.556 875.376C842.803 874.697 852.816 874.652 858.326 880.367C862.433 884.636 861.639 891.408 860.524 896.696C858.779 904.939 855.149 912.949 851.918 920.676C847.449 931.323 843.09 942.273 837.524 952.405C834.806 957.339 831.472 961.923 828.223 966.49C827.182 967.927 826.193 969.433 825.203 970.94C825.167 970.9 825.163 970.847 825.127 970.807C826.934 952.063 828.187 933.15 833.985 915.112C835.039 911.807 830.305 909.839 828.953 913.105C821.999 929.795 820.656 948.02 819.045 965.878C818.085 961.484 817.04 957.106 815.616 952.836C814.188 948.515 812.554 944.243 811.485 939.801C810.378 935.192 809.79 930.451 808.962 925.792C807.31 916.926 805.42 907.936 805.404 898.888ZM736.646 969.175C731.068 968.28 718.324 965.958 719.521 957.785C720.082 953.891 722.289 949.846 723.737 946.202C725.388 942.118 727.098 938.085 729.018 934.109C732.86 926.156 737.521 918.297 743.724 911.936C748.167 907.377 754.577 902.847 761.195 902.83C769.14 902.819 773.687 910.887 777.394 916.744C783.043 925.642 788.719 934.603 793.994 943.717C798.609 951.681 803.007 959.794 807.694 967.709C807.998 969.367 808.332 971.013 808.668 972.657C808.2 972.653 807.741 972.627 807.276 972.622C807.435 971.565 807.094 970.465 805.992 969.635C790.168 957.719 774.061 945.796 755.405 938.641C752.265 937.442 750.485 942.046 753.482 943.477C770 951.292 784.701 962.105 799.247 973.043C797.217 973.171 795.178 973.322 793.149 973.45C783.793 974.068 774.783 973.42 765.469 972.492C755.881 971.534 746.162 970.707 736.646 969.175ZM764.026 1028.59C763.768 1028.9 763.537 1029.23 763.28 1029.54C759.441 1033.3 755.496 1036.94 751.357 1040.34C745.4 1045.24 739.281 1048.45 731.565 1045.4C725.311 1042.93 720.463 1037.71 717.492 1031.84C715.185 1027.3 711.743 1019.59 714.431 1014.8C715.804 1012.32 719.96 1010 722.563 1008.3C726.224 1005.9 729.86 1003.63 733.764 1001.67C741.667 997.705 750.028 995.203 758.644 993.378C768.739 991.229 778.984 989.948 789.224 988.743C789.987 988.657 790.759 988.549 791.534 988.439C779.397 993.813 767.44 999.597 756.063 1006.47C753.349 1008.12 756.084 1012.76 758.913 1011.28C769.5 1005.73 780.321 1000.72 791.265 995.916C789.316 998.265 787.388 1000.62 785.439 1002.97C778.283 1011.53 770.971 1019.9 764.026 1028.59ZM807.054 1083.15C805.573 1085.5 804.294 1087.21 802.167 1087.84C798.746 1088.85 794.31 1087.57 790.892 1086.94C782.819 1085.44 775.662 1081.91 769.605 1076.39C764.654 1071.89 761.349 1065.93 762.076 1059.13C763.041 1050.3 768.392 1042.74 773.745 1035.96C773.941 1035.72 774.108 1035.51 774.304 1035.27C780.975 1028.58 787.284 1021.56 793.357 1014.34C796.185 1010.96 799.002 1007.55 801.815 1004.14C797.545 1018.27 793.397 1032.49 790.492 1046.99C789.973 1049.6 794.403 1050.77 795.081 1048.15C799.291 1031.61 804.407 1015.36 809.406 999.062C809.813 997.712 809.304 996.571 808.441 995.862C808.567 995.676 808.715 995.502 808.861 995.326C809.464 995.646 810.102 995.874 810.748 996.079C811.828 999.846 812.906 1003.61 813.976 1007.4C816.549 1016.5 814.906 1026.06 815.146 1035.41C815.379 1045.09 813.737 1054.78 812.407 1064.33C811.473 1071 810.459 1077.73 807.054 1083.15ZM850.547 1062.43C846.183 1063.71 839.978 1064.26 836.556 1060.63C833.075 1056.94 832.114 1050.46 830.974 1045.74C829.898 1041.24 829.095 1036.73 828.414 1032.15C828.393 1029.72 828.402 1027.27 828.563 1024.84C828.907 1018.75 829.192 1012.79 827.688 1006.82C827.513 1006.15 827.306 1005.5 827.131 1004.83C831.722 1013.83 836.877 1022.53 841.802 1031.35C843.478 1034.33 848.288 1032.45 846.798 1029.19C841.423 1017.52 834.765 1006.44 829.33 994.787C833.09 996.13 836.824 997.543 840.337 999.44C846.659 1002.85 852.341 1007.54 857.613 1012.35C862.554 1016.88 867.64 1021.56 871.625 1026.98C873.268 1029.2 874.557 1031.59 875.827 1034.03C877.133 1036.5 878.883 1039.36 879.103 1042.21C879.56 1048.52 872.935 1052.28 868.155 1054.94C862.695 1058 856.529 1060.67 850.547 1062.43ZM826.633 1432.75C839.013 1428.6 852.487 1425.87 865.582 1426.59C880.096 1427.4 893.944 1431.98 907.342 1437.3C935.36 1448.4 963.702 1462.03 994.385 1462.7C1009.15 1463.01 1024.07 1463.2 1038.78 1462.09C1053.14 1460.99 1067.04 1458.04 1080.8 1453.81C1097.56 1448.66 1111.67 1438.92 1125.55 1428.48C1132.56 1423.23 1139.25 1417.61 1146.13 1412.17C1148.59 1410.24 1151.1 1408.37 1153.61 1406.51C1148.3 1413.85 1141.6 1420.22 1135.2 1426.68C1125.87 1436.06 1117 1445.92 1107.17 1454.79C1097.87 1463.2 1087.72 1470.64 1076.1 1475.57C1063.52 1480.89 1049.63 1483.88 1036.18 1486.01C1022.25 1488.25 1008.14 1489.11 994.059 1488.18C978.126 1487.14 962.267 1484.93 946.493 1482.44C914.975 1477.45 883.521 1471.92 852.147 1466.17C834.995 1463.03 817.977 1460.07 800.533 1459.29C794.782 1459.03 789.061 1459.01 783.386 1459.54C787.282 1455.96 791.144 1452.34 794.981 1448.71C795.776 1447.96 796.57 1447.21 797.362 1446.46C798.498 1445.76 799.682 1445.14 800.832 1444.48C801.219 1445.34 802.064 1445.96 803.366 1445.96C827.079 1445.96 850.561 1449.75 873.845 1453.91C879.654 1454.94 885.496 1455.9 891.246 1457.28C897.072 1458.66 902.813 1460.33 908.729 1461.36C919.544 1463.23 929.87 1467.89 940.975 1467.66C944.203 1467.59 943.98 1462.39 940.859 1462.06C935.209 1461.47 929.808 1459.74 924.4 1458.15C919.247 1456.64 914.166 1455.48 908.89 1454.54C902.816 1453.45 896.874 1451.7 890.841 1450.31C885.285 1449.04 879.63 1448.13 874.011 1447.14C852.9 1443.42 831.639 1440.07 810.192 1439.54C815.548 1436.93 820.988 1434.64 826.633 1432.75ZM1344.27 1123.08C1348.19 1116.04 1352.48 1109.05 1357.94 1103.07C1360.34 1100.43 1362.91 1097.84 1365.6 1095.44C1367.98 1093.32 1370.34 1090.74 1373.64 1092.19C1379.5 1094.74 1383.28 1101.01 1385.58 1106.67C1388.13 1113.01 1389.77 1120.02 1390.58 1126.8C1391.4 1133.65 1389.61 1139.65 1384.62 1144.54C1379.98 1149.07 1373.35 1151.33 1367.2 1152.91C1358.76 1155.1 1350.13 1156.71 1341.63 1158.71C1336.86 1159.83 1332.08 1160.92 1327.36 1162.19C1327.32 1162.2 1327.29 1162.22 1327.26 1162.23C1327.74 1160.96 1328.24 1159.7 1328.72 1158.44C1328.81 1159.07 1329.13 1159.69 1329.61 1160.07C1330.66 1160.88 1331.99 1160.55 1332.83 1159.61C1338.13 1153.75 1344.06 1148.42 1350.41 1143.71C1352.59 1142.08 1350.03 1138.84 1347.82 1140.39C1341.14 1145.1 1335.05 1150.51 1329.47 1156.49C1333.79 1145.11 1338.29 1133.8 1344.27 1123.08ZM1273.4 1113.25C1272.03 1110.21 1269.78 1106.31 1269.56 1102.94C1269.36 1099.79 1272.07 1096.7 1273.94 1094.48C1277.9 1089.77 1282.34 1085.01 1287.12 1081.13C1291.28 1077.73 1297.1 1073.96 1302.7 1075.93C1309.01 1078.18 1312.54 1086.45 1315.36 1091.92C1318.81 1098.62 1320.82 1105.36 1321.36 1112.89C1321.97 1121.24 1320.84 1129.63 1319.83 1137.87C1319.12 1143.5 1318.47 1149.13 1317.34 1154.65C1316.03 1151.99 1315.01 1149.13 1313.92 1146.43C1310.97 1139 1308.26 1131.49 1304.65 1124.34C1303.9 1122.87 1302.22 1122.07 1300.63 1122.73C1299.18 1123.36 1298.29 1125.27 1299.02 1126.76C1302.54 1133.63 1305.22 1140.88 1308.14 1148.01C1309.42 1151.15 1310.72 1154.35 1312.27 1157.4C1309.25 1155.02 1306.05 1152.86 1303.22 1150.82C1296.79 1146.17 1290.34 1141.77 1285.76 1135.17C1281.01 1128.33 1276.84 1120.88 1273.4 1113.25ZM1219.83 1169.64C1213.68 1169.45 1208.83 1167.26 1208.1 1160.63C1207.71 1157.12 1208.96 1153.91 1210.48 1150.8C1212.14 1147.42 1213.97 1144.01 1216.07 1140.88C1217.41 1138.89 1219.08 1136.33 1221.54 1135.77C1222.88 1135.47 1224.42 1135.72 1225.8 1135.72C1228.36 1135.76 1230.9 1135.8 1233.45 1136.06C1242.4 1136.98 1251.02 1140.23 1259.21 1143.81C1266.07 1146.84 1272.72 1150.35 1279.3 1153.96C1274.46 1153.31 1269.62 1152.71 1264.77 1152.21C1261.12 1151.82 1260.48 1157.5 1264.15 1157.88C1270.5 1158.53 1276.82 1159.33 1283.15 1160.24C1279.75 1160.61 1276.36 1161.03 1272.97 1161.5C1263.68 1162.79 1254.44 1164.37 1245.19 1165.95C1236.93 1167.34 1228.22 1169.88 1219.83 1169.64ZM1288.42 1201.82C1285.93 1204.74 1283.34 1207.59 1280.63 1210.34C1274.81 1216.27 1268.98 1222.81 1262.26 1227.73C1255.79 1232.48 1246.02 1235.77 1237.93 1234.71C1229.87 1233.63 1224.24 1226.46 1220.97 1219.55C1218.12 1213.52 1217.7 1207.09 1220.72 1201.03C1227.66 1186.99 1245.07 1183.46 1258.58 1179.15C1273.84 1174.27 1289.27 1171.81 1305.04 1170.72C1304.52 1171.5 1304.02 1172.29 1303.51 1173.06C1302.69 1171.84 1300.98 1171.11 1299.4 1172.14C1285.31 1181.43 1271.85 1191.72 1256.69 1199.27C1253.96 1200.63 1255.74 1204.86 1258.57 1203.64C1273.52 1197.26 1286.63 1187.43 1300.1 1178.42C1297.32 1182.93 1294.71 1187.58 1292.48 1192.42C1291.06 1195.53 1289.73 1198.67 1288.42 1201.82ZM1342.15 1243.63C1340.95 1251.36 1336.03 1257.63 1329.61 1261.92C1323.22 1266.2 1314.83 1267.73 1307.44 1269.37C1300.59 1270.88 1291.33 1272.82 1284.98 1268.69C1280.33 1265.67 1280.47 1259.08 1280.99 1254.18C1281.84 1246.18 1284.27 1238.68 1287.38 1231.27C1291.09 1222.46 1294.37 1213.5 1297.95 1204.63C1299.4 1202.89 1300.8 1201.13 1302.15 1199.3C1305.27 1195.07 1308.06 1190.61 1310.53 1185.97C1311.11 1193.26 1311.66 1200.54 1312.14 1207.82C1312.44 1212.37 1312.63 1216.93 1312.82 1221.49C1312.98 1225.59 1313.46 1229.76 1315.44 1233.42C1316.97 1236.25 1321.21 1234.5 1320.06 1231.43C1318.63 1227.63 1318.76 1223.44 1318.85 1219.43C1318.94 1214.88 1318.62 1210.38 1318.35 1205.84C1317.71 1195.53 1316.97 1185.22 1316.12 1174.93C1317.48 1175.5 1319.03 1175.6 1320.43 1175.03C1320.52 1175.18 1320.6 1175.37 1320.73 1175.5C1322.26 1177.49 1323.89 1179.34 1325.58 1181.18C1327.36 1183.12 1329.22 1185.06 1330.8 1187.17C1331.17 1187.74 1331.57 1188.31 1331.94 1188.88C1332.28 1189.4 1332.62 1189.93 1332.91 1190.49C1337.1 1198.88 1340.73 1208.52 1342.03 1217.81C1343.19 1226.22 1343.46 1235.22 1342.15 1243.63ZM1399.03 1215.69C1394.37 1220.45 1389.28 1223.19 1382.53 1221.62C1375.39 1219.94 1369.24 1214.86 1363.66 1210.37C1355.9 1204.09 1348.94 1196.93 1343.07 1188.84C1339.94 1184.54 1337.13 1180.03 1334.07 1175.68C1333.2 1174.45 1332.26 1173.29 1331.27 1172.17C1338.96 1173.2 1346.67 1174.3 1354.37 1175.23C1363.26 1176.31 1372.49 1176.39 1381.16 1178.81C1384.42 1179.72 1386.46 1175.03 1383.15 1173.82C1374.51 1170.6 1365.17 1170.19 1356.13 1168.98C1354.43 1168.74 1352.72 1168.51 1351.01 1168.29C1355.9 1167.12 1360.76 1165.9 1365.72 1165.15C1374.39 1163.78 1383.51 1163.82 1392.2 1165C1399.22 1165.95 1408.04 1168.97 1410.59 1176.37C1412.6 1182.23 1411.59 1189.41 1410.42 1195.35C1408.96 1202.95 1404.42 1210.18 1399.03 1215.69Z" fill="black"/>
<path d="M2090.49 1085.41L2089.94 1097.24L1978.06 1092.06L1978.61 1080.23L2090.49 1085.41Z" fill="black"/>
<path d="M1960.99 1244.4L2001 1225.69C2001.21 1222.8 2001.59 1219.83 2002.14 1216.79L2007.55 1187.2L1972.61 1180.81L1974.74 1169.16L2084.91 1189.3L2077.38 1230.54C2074.81 1244.6 2069.43 1255 2061.26 1261.75C2053.09 1268.5 2043.12 1270.8 2031.37 1268.65C2022.77 1267.08 2015.88 1263.54 2010.7 1258.04C2005.61 1252.66 2002.5 1245.7 2001.35 1237.14L1958.66 1257.14L1960.99 1244.4ZM2012.12 1218.28C2010.12 1229.2 2011.01 1237.98 2014.78 1244.63C2018.55 1251.29 2024.79 1255.41 2033.5 1257C2042.42 1258.63 2049.77 1256.99 2055.55 1252.09C2061.43 1247.2 2065.37 1239.3 2067.36 1228.38L2072.71 1199.11L2017.47 1189.01L2012.12 1218.28Z" fill="black"/>
<path d="M1927.7 1396.89L1918.06 1393.43L1944.77 1318.87L2050.21 1356.64L2024.31 1428.94L2014.67 1425.49L2036.58 1364.33L1999.07 1350.9L1979.54 1405.43L1970.05 1402.03L1989.58 1347.5L1950.42 1333.47L1927.7 1396.89Z" fill="black"/>
<path d="M1945.99 1590.97L1848.53 1535.79L1853.34 1527.29L1967.9 1509.41L1888.81 1464.64L1894.65 1454.34L1992.11 1509.52L1987.3 1518.01L1872.66 1536.03L1951.75 1580.8L1945.99 1590.97Z" fill="black"/>
<path d="M1702.76 1868.58L1668.34 1751.03L1677.26 1743.49L1787.44 1797L1777.67 1805.26L1682.12 1758.65L1711.93 1860.83L1702.76 1868.58Z" fill="black"/>
<path d="M1540.8 1879.47L1594.41 1847.54L1590.64 1814.96L1601.23 1808.65L1614.56 1931.07L1604.53 1937.05L1503.22 1867.04L1513.94 1860.65L1540.8 1879.47ZM1549.42 1885.51L1603.31 1923.44L1595.61 1858L1549.42 1885.51Z" fill="black"/>
<path d="M1382.18 1921.38L1419.07 1945.67C1421.64 1944.33 1424.36 1943.1 1427.25 1941.99L1455.29 1931.1L1442.44 1897.99L1453.47 1893.7L1494 1998.12L1454.92 2013.28C1441.59 2018.46 1429.92 2019.33 1419.89 2015.89C1409.86 2012.46 1402.69 2005.18 1398.36 1994.04C1395.2 1985.89 1394.61 1978.17 1396.58 1970.88C1398.5 1963.73 1402.8 1957.42 1409.49 1951.96L1370.09 1926.07L1382.18 1921.38ZM1431.19 1951.27C1420.85 1955.28 1413.83 1960.64 1410.14 1967.33C1406.44 1974.03 1406.2 1981.5 1409.4 1989.76C1412.68 1998.21 1417.93 2003.61 1425.13 2005.97C1432.38 2008.42 1441.17 2007.64 1451.51 2003.62L1479.25 1992.85L1458.93 1940.5L1431.19 1951.27Z" fill="black"/>
<path d="M1216.43 2078.9L1196.28 1968.72L1207.46 1966.68L1223.57 2054.82L1253.3 1972.78L1258.81 1971.77L1315.56 2037.51L1299.53 1949.85L1310.71 1947.8L1330.85 2057.98L1321.25 2059.73L1258.47 1986.79L1226.03 2077.14L1216.43 2078.9Z" fill="black"/>
<path d="M1049.41 2006.76L1111.81 2007.25L1125.48 1977.43L1137.8 1977.53L1085.74 2089.13L1074.06 2089.04L1023.73 1976.64L1036.21 1976.74L1049.41 2006.76ZM1053.66 2016.4L1080.07 2076.76L1107.42 2016.81L1053.66 2016.4Z" fill="black"/>
<path d="M767.088 1925.25C777.503 1929.07 786.072 1934.83 792.795 1942.52C799.418 1950.17 803.646 1958.94 805.478 1968.81C807.174 1978.75 806.167 1988.78 802.459 1998.89C798.75 2009 793.054 2017.26 785.373 2023.64C777.555 2030.09 768.595 2034.08 758.494 2035.6C748.392 2037.12 738.134 2035.97 727.719 2032.15C719.907 2029.29 713.174 2025.34 707.519 2020.32C701.864 2015.29 697.651 2009.43 694.881 2002.73L704.53 1998.26C709.694 2009.58 718.535 2017.54 731.054 2022.13C739.366 2025.18 747.624 2026.05 755.83 2024.74C764.035 2023.43 771.303 2020.19 777.632 2015.01C783.861 2009.79 788.481 2003.08 791.492 1994.87C794.504 1986.66 795.318 1978.55 793.936 1970.54C792.454 1962.5 789.006 1955.33 783.592 1949.03C778.177 1942.72 771.314 1938.05 763.002 1935C750.383 1930.37 738.476 1930.78 727.279 1936.22L722.808 1926.57C729.251 1923.25 736.323 1921.47 744.024 1921.23C751.588 1921.05 759.276 1922.39 767.088 1925.25Z" fill="black"/>
<path d="M628.507 1863.44C638.079 1869.05 645.537 1876.26 650.88 1885.08C656.077 1893.93 658.701 1903.38 658.752 1913.42C658.71 1923.41 655.967 1933.06 650.522 1942.35C645.076 1951.65 638.007 1958.76 629.314 1963.68C620.529 1968.54 611.031 1970.83 600.82 1970.53C590.463 1970.28 580.498 1967.35 570.926 1961.74C561.354 1956.13 553.989 1948.97 548.83 1940.26C543.579 1931.5 540.955 1922.05 540.958 1911.92C540.907 1901.88 543.604 1892.21 549.05 1882.91C554.495 1873.61 561.637 1866.49 570.476 1861.53C579.261 1856.66 588.759 1854.37 598.97 1854.67C609.09 1854.91 618.935 1857.83 628.507 1863.44ZM623.17 1872.55C615.53 1868.08 607.63 1865.74 599.469 1865.53C591.253 1865.42 583.618 1867.37 576.562 1871.4C569.452 1875.51 563.687 1881.35 559.266 1888.89C554.845 1896.44 552.604 1904.28 552.543 1912.4C552.428 1920.62 554.457 1928.23 558.628 1935.25C562.746 1942.36 568.625 1948.15 576.264 1952.63C583.903 1957.1 591.876 1959.42 600.184 1959.59C608.345 1959.8 616.027 1957.87 623.228 1953.81C630.284 1949.78 636.023 1943.99 640.444 1936.45C644.865 1928.9 647.132 1921.02 647.247 1912.8C647.216 1904.63 645.142 1896.98 641.024 1889.87C636.76 1882.8 630.809 1877.03 623.17 1872.55Z" fill="black"/>
<path d="M501.285 1778.49C507.659 1783.84 512.93 1790 517.099 1796.98C521.186 1803.89 523.417 1810.36 523.793 1816.38L514.376 1820.39C513.877 1814.68 511.876 1808.68 508.374 1802.4C504.803 1796.2 500.28 1790.81 494.806 1786.21C487.125 1779.77 480.199 1776.32 474.027 1775.88C467.787 1775.51 462.782 1777.58 459.01 1782.07C456.131 1785.51 454.896 1789.13 455.306 1792.96C455.635 1796.72 456.865 1800.39 458.997 1803.99C461.06 1807.67 464.24 1812.43 468.536 1818.26C473.62 1825.32 477.465 1831.19 480.071 1835.88C482.608 1840.66 483.963 1845.76 484.136 1851.2C484.227 1856.57 482.044 1861.9 477.587 1867.22C473.953 1871.55 469.518 1874.51 464.282 1876.1C458.977 1877.78 453.064 1877.69 446.542 1875.84C440.02 1873.98 433.246 1870.11 426.219 1864.21C421.316 1860.1 417.119 1855.39 413.627 1850.1C409.985 1844.81 407.442 1839.55 405.999 1834.3L415.131 1829.64C416.738 1835.02 419.104 1840 422.229 1844.57C425.286 1849.23 428.776 1853.2 432.698 1856.49C440.215 1862.8 447.128 1866.09 453.437 1866.38C459.596 1866.67 464.595 1864.53 468.434 1859.95C471.314 1856.52 472.624 1852.89 472.364 1849.05C471.954 1845.22 470.676 1841.43 468.531 1837.69C466.236 1833.95 462.981 1829.2 458.767 1823.43C453.778 1816.6 450.015 1810.8 447.477 1806.02C444.789 1801.26 443.4 1796.2 443.309 1790.83C443.149 1785.54 445.264 1780.29 449.652 1775.06C453.286 1770.73 457.796 1767.76 463.182 1766.15C468.419 1764.56 474.339 1764.72 480.942 1766.64C487.477 1768.64 494.258 1772.59 501.285 1778.49Z" fill="black"/>
<path d="M260.8 1695.53L346.596 1623.54L353.898 1632.24L285.261 1689.84L371.273 1675.1L374.873 1679.39L345.796 1761.23L414.064 1703.94L421.367 1712.64L335.571 1784.64L329.297 1777.16L361.643 1686.52L267.074 1703.01L260.8 1695.53Z" fill="black"/>
<path d="M255.324 1500.66L264.235 1495.62L303.255 1564.54L205.791 1619.72L167.953 1552.89L176.864 1547.84L208.869 1604.37L243.538 1584.74L215.002 1534.34L223.774 1529.37L252.31 1579.78L288.511 1559.28L255.324 1500.66Z" fill="black"/>
<path d="M131.288 1452.54L145.254 1489.33L135.68 1492.97L103.548 1408.3L113.122 1404.67L127.087 1441.47L222.226 1405.36L226.427 1416.43L131.288 1452.54Z" fill="black"/>
<path d="M180.145 1267.27C182.307 1278.16 181.865 1288.52 178.819 1298.37C175.648 1308.13 170.324 1316.37 162.847 1323.08C155.35 1329.68 146.317 1334.03 135.751 1336.13C125.184 1338.22 115.175 1337.66 105.723 1334.42C96.2513 1331.09 88.236 1325.5 81.6775 1317.67C74.9935 1309.75 70.5707 1300.35 68.409 1289.47C66.2474 1278.59 66.7103 1268.33 69.7977 1258.69C72.8644 1248.95 78.1884 1240.71 85.7697 1233.99C93.2464 1227.28 102.268 1222.88 112.835 1220.78C123.402 1218.68 133.474 1219.29 143.05 1222.61C152.522 1225.95 160.538 1231.53 167.096 1239.36C173.634 1247.09 177.984 1256.39 180.145 1267.27ZM169.788 1269.33C168.063 1260.65 164.568 1253.19 159.305 1246.95C153.936 1240.73 147.405 1236.31 139.71 1233.71C131.91 1231.13 123.721 1230.69 115.142 1232.39C106.563 1234.1 99.216 1237.62 93.1008 1242.97C86.881 1248.34 82.5318 1254.91 80.0534 1262.69C77.4704 1270.49 77.0415 1278.73 78.7666 1287.42C80.4918 1296.1 84.0489 1303.6 89.4379 1309.93C94.7015 1316.17 101.243 1320.63 109.064 1323.32C116.759 1325.92 124.896 1326.37 133.475 1324.67C142.054 1322.96 149.453 1319.43 155.673 1314.06C161.767 1308.61 166.106 1301.98 168.689 1294.18C171.147 1286.3 171.513 1278.02 169.788 1269.33Z" fill="black"/>
<path d="M47.3607 1150.75L46.9952 1138.91L148.707 1135.77L146.77 1073.08L157.006 1072.77L159.307 1147.29L47.3607 1150.75Z" fill="black"/>
<path d="M163.752 962.752C162.219 973.738 158.395 983.382 152.282 991.684C146.079 999.865 138.344 1005.89 129.08 1009.77C119.83 1013.54 109.87 1014.68 99.1997 1013.19C88.5298 1011.7 79.2628 1007.88 71.3987 1001.72C63.5494 995.454 57.8143 987.545 54.1933 977.993C50.4814 968.321 49.3922 957.991 50.9257 947.004C52.4591 936.017 56.2676 926.479 62.3509 918.389C68.4491 910.193 76.1834 904.164 85.5538 900.302C94.8186 896.426 104.786 895.232 115.456 896.721C126.126 898.211 135.438 902.095 143.393 908.375C151.242 914.64 156.978 922.549 160.599 932.101C164.234 941.548 165.285 951.765 163.752 962.752ZM153.293 961.292C154.517 952.523 153.669 944.327 150.748 936.704C147.721 929.065 143.002 922.753 136.59 917.765C130.072 912.763 122.482 909.657 113.819 908.448C105.157 907.239 97.0588 908.155 89.5261 911.196C81.8877 914.223 75.6202 919.002 70.7235 925.535C65.7212 932.052 62.6081 939.695 61.3843 948.464C60.1605 957.232 61.0544 965.488 64.0662 973.232C66.9871 980.856 71.699 987.222 78.202 992.33C84.6141 997.317 92.1515 1000.42 100.814 1001.62C109.477 1002.83 117.627 1001.92 125.266 998.898C132.813 995.752 139.088 990.919 144.091 984.401C149.002 977.763 152.07 970.06 153.293 961.292Z" fill="black"/>
<path d="M154.057 750.365L157.645 739.587L198.178 753.08C200.879 759.488 202.265 766.47 202.335 774.025C202.406 781.581 201.194 789.103 198.701 796.593C195.164 807.219 189.652 816.008 182.167 822.96C174.681 829.912 166.031 834.452 156.216 836.581C146.3 838.676 136.231 838.022 126.009 834.619C115.787 831.216 107.386 825.722 100.806 818.135C94.1238 810.514 89.8703 801.678 88.0448 791.627C86.2194 781.576 87.0923 771.187 90.6636 760.459C93.3589 752.362 97.1509 745.362 102.04 739.457C106.827 733.518 112.526 729.063 119.136 726.093L123.946 735.451C112.851 741.088 105.147 750.384 100.835 763.339C97.9709 771.941 97.2996 780.374 98.8207 788.638C100.274 796.766 103.735 803.933 109.201 810.137C114.567 816.308 121.399 820.774 129.698 823.537C137.997 826.3 146.143 826.819 154.137 825.096C162.131 823.373 169.196 819.71 175.333 814.108C181.469 808.507 185.97 801.404 188.833 792.802C192.472 781.872 192.822 771.702 189.884 762.292L154.057 750.365Z" fill="black"/>
<path d="M137.638 640.121L142.892 629.51L243.265 679.201L238.012 689.812L137.638 640.121Z" fill="black"/>
<path d="M295.913 584.477C291.318 591.413 285.789 597.347 279.325 602.277C272.92 607.119 266.746 610.066 260.802 611.12L255.761 602.215C261.379 601.074 267.11 598.409 272.955 594.22C278.711 589.972 283.562 584.869 287.509 578.911C293.046 570.551 295.686 563.281 295.431 557.098C295.087 550.857 292.469 546.117 287.578 542.877C283.843 540.403 280.098 539.586 276.343 540.426C272.648 541.177 269.132 542.814 265.797 545.339C262.372 547.805 258.005 551.501 252.695 556.428C246.263 562.275 240.862 566.759 236.493 569.878C232.035 572.939 227.115 574.862 221.733 575.647C216.41 576.344 210.859 574.778 205.078 570.949C200.365 567.827 196.921 563.755 194.746 558.732C192.483 553.651 191.903 547.765 193.007 541.076C194.111 534.387 197.196 527.218 202.261 519.57C205.795 514.234 209.997 509.532 214.866 505.465C219.705 501.249 224.651 498.128 229.704 496.101L235.365 504.649C230.195 506.853 225.514 509.767 221.324 513.389C217.045 516.952 213.492 520.867 210.665 525.136C205.246 533.318 202.753 540.558 203.186 546.859C203.589 553.011 206.281 557.736 211.261 561.035C214.996 563.508 218.756 564.399 222.541 563.708C226.295 562.868 229.914 561.171 233.398 558.616C236.851 555.914 241.203 552.143 246.455 547.305C252.68 541.577 258.021 537.182 262.479 534.122C266.907 530.913 271.783 528.961 277.106 528.264C282.34 527.509 287.803 529.016 293.494 532.786C298.207 535.908 301.666 540.054 303.871 545.224C306.046 550.247 306.552 556.148 305.389 562.926C304.137 569.645 300.978 576.829 295.913 584.477Z" fill="black"/>
<path d="M293.965 413.131L267.691 442.438L260.066 435.602L320.518 368.173L328.142 375.008L301.868 404.315L377.637 472.243L369.734 481.059L293.965 413.131Z" fill="black"/>
<path d="M516.328 204.736L526.478 198.639L584.152 294.648L574.002 300.745L516.328 204.736Z" fill="black"/>
<path d="M690.482 115.562L734.112 218.714L725.123 222.516L623.408 166.863L658.811 250.564L647.906 255.176L604.276 152.024L613.265 148.222L715.128 203.812L679.725 120.112L690.482 115.562Z" fill="black"/>
<path d="M1048.04 43.9431L1052.37 155.86L1042.61 156.236L967.16 68.2019L970.667 159.014L958.836 159.471L954.514 47.5545L964.267 47.1779L1039.88 135.206L1036.37 44.3937L1048.04 43.9431Z" fill="black"/>
<path d="M1210.58 156.545L1209.2 166.692L1130.72 156.045L1145.78 45.0617L1221.88 55.3859L1220.5 65.533L1156.13 56.8004L1150.78 96.2788L1208.17 104.065L1206.82 114.053L1149.42 106.267L1143.83 147.49L1210.58 156.545Z" fill="black"/>
<path d="M1456.59 118.717L1384.33 212.246L1372.53 208.171L1372.72 107.176L1310.38 186.696L1298.73 182.673L1299.62 64.4826L1311.11 68.4535L1310.21 170.047L1373.27 89.9279L1383.7 93.533L1383.24 195.79L1445.86 115.007L1456.59 118.717Z" fill="black"/>
<path d="M1668.64 331.367L1643.53 360.846L1634.64 353.273L1659.74 323.794L1673.15 238.957L1682.77 247.153L1671.24 319.922L1741.24 296.947L1750.26 304.623L1668.64 331.367Z" fill="black"/>
<path d="M1748.45 462.657C1741.32 454.159 1736.72 444.86 1734.65 434.761C1732.74 424.675 1733.44 414.894 1736.77 405.418C1740.16 396.023 1745.99 387.864 1754.24 380.939C1762.49 374.014 1771.54 369.694 1781.38 367.981C1791.29 366.349 1801 367.388 1810.52 371.098C1820.19 374.82 1828.59 380.931 1835.72 389.428C1842.85 397.926 1847.38 407.143 1849.32 417.079C1851.32 427.097 1850.61 436.878 1847.2 446.422C1843.88 455.898 1838.09 464.099 1829.83 471.024C1821.58 477.949 1812.46 482.262 1802.47 483.962C1792.56 485.594 1782.84 484.555 1773.33 480.845C1763.88 477.217 1755.59 471.154 1748.45 462.657ZM1756.54 455.869C1762.23 462.651 1768.89 467.51 1776.51 470.448C1784.21 473.317 1792.05 474.041 1800.05 472.621C1808.13 471.132 1815.52 467.577 1822.22 461.954C1828.92 456.332 1833.67 449.705 1836.45 442.075C1839.32 434.376 1839.97 426.521 1838.4 418.509C1836.91 410.429 1833.32 402.998 1827.63 396.216C1821.94 389.435 1815.21 384.568 1807.44 381.617C1799.83 378.68 1791.94 377.915 1783.8 379.322C1775.8 380.742 1768.45 384.264 1761.75 389.886C1755.05 395.508 1750.26 402.169 1747.39 409.868C1744.67 417.58 1744.06 425.476 1745.55 433.556C1747.19 441.649 1750.85 449.087 1756.54 455.869Z" fill="black"/>
<path d="M1865.22 626.529L1883.79 586.447C1882.08 584.104 1880.46 581.59 1878.93 578.904L1864.01 552.783L1833.17 570.396L1827.3 560.115L1924.55 504.576L1945.34 540.979C1952.43 553.391 1955.02 564.81 1953.11 575.235C1951.2 585.66 1945.06 593.834 1934.69 599.758C1927.09 604.096 1919.54 605.827 1912.04 604.951C1904.69 604.115 1897.81 600.793 1891.43 594.983L1871.65 637.784L1865.22 626.529ZM1887.52 573.628C1893.02 583.261 1899.36 589.408 1906.53 592.07C1913.7 594.731 1921.13 593.867 1928.82 589.476C1936.69 584.98 1941.26 578.995 1942.52 571.52C1943.87 563.993 1941.79 555.412 1936.29 545.779L1921.53 519.936L1872.76 547.784L1887.52 573.628Z" fill="black"/>
<path d="M1962.56 708.33L1932.9 694.836L1905.26 704.971L1901.19 693.855L2006.34 655.297L2010.42 666.413L1946.87 689.713L2033.06 728.154L2037.74 740.922L1973.43 712.867L1933.74 782.635L1928.89 769.415L1962.56 708.33Z" fill="black"/>
</svg>
